<svg
  width="14"
  height="14"
  viewBox="0 0 14 14"
  fill="none"
  xmlns="http://www.w3.org/2000/svg"
>
  <path
    d="M1.29289 11.2929C0.902369 11.6834 0.902369 12.3166 1.29289
  12.7071C1.68342 13.0976 2.31658 13.0976 2.70711 12.7071L7 8.41421L11.2929
  12.7071C11.6834 13.0976 12.3166 13.0976 12.7071 12.7071C13.0976 12.3166
  13.0976 11.6834 12.7071 11.2929L8.4138 6.99959L12.707 2.70717C13.0976 2.31669
  13.0977 1.68352 12.7072 1.29296C12.3167 0.902399 11.6835 0.902339 11.293
  1.29283L6.99918 5.58579L2.70717 1.29296C2.31669 0.902399 1.68352 0.902339
  1.29296 1.29283C0.902399 1.68331 0.902339 2.31648 1.29283 2.70704L5.58538
  7.00041L1.29289 11.2929Z"
    stroke="white"
    stroke-opacity="0.69"
    stroke-width="2"
    stroke-linecap="round"
    stroke-linejoin="round"
  />
</svg>
